# xmcd
#
# Track frame offsets: 
#        150
#        1457
#        6745
#        14342
#        21102
#        33205
#        41272
#        54720
#        65637
#        75062
#        84627
#        88242
#        91705
#        97480
#        103697
#        108270
#        115675
#        122630
#        134880
#        142665
#        150110
#        157665
#        167867
#        174435
#        180922
#        190467
#        196767
#        202782
#        210265
#        217150
#        224937
#        235155
#        242472
#
# Disc length: 3248 seconds
#
# Revision: 0
# Processed by: cddbd v1.5.2PL0 Copyright (c) Steve Scherf et al.
# Submitted via: ExactAudioCopy v0.99pb4
#
DISCID=b00cae21
DTITLE=Charlie Monroe - I'm Old Kentucky Bound - Disc 4
DYEAR=2007
DGENRE=Country
TTITLE0=Old Joe Clark
TTITLE1=Open Remarks From Charlie Monroe
TTITLE2=Penitentiary Blues
TTITLE3=Patter and Story from Charlie Monroe
TTITLE4=Why Did You Ever Say Goodbye
TTITLE5=Find 'Em, Fool 'Em And Leave 'Em Alone
TTITLE6=When The Women Get In Power
TTITLE7=I'm Old Kentucky Bound
TTITLE8=Down In Caroline
TTITLE9=Down In The Willow Garden
TTITLE10=Bill Cheatham
TTITLE11=I Know You'll Understand
TTITLE12=Goin' Down The Road Feeling Bad
TTITLE13=I'm Old Kentucky Bound
TTITLE14=Bile 'Em Cabbage Down
TTITLE15=Good Morning To You
TTITLE16=Hop Along Peter
TTITLE17=Ain't Nobody Gonna Miss Me When I'm Gone
TTITLE18=Orange Blossom Special
TTITLE19=I'll Thank The Friends Who Prayed For Me
TTITLE20=Penitentiary Blues
TTITLE21=Lonely Little Robin
TTITLE22=Shine On Me
TTITLE23=John Henry
TTITLE24=Paul And Silas Bound In Jail
TTITLE25=Rocky Road Blues
TTITLE26=Bile 'Em Cabbage Down
TTITLE27=Who's Calling You Sweetheart Tonight
TTITLE28=It's Only A Phonograph Record
TTITLE29=Goin' Down The Road Feeling Bad
TTITLE30=Down In Caroline
TTITLE31=(I'm Gonna) Sing, Sing, Sing
TTITLE32=Fiddle Outro
EXTD=
EXTT0=
EXTT1=
EXTT2=
EXTT3=
EXTT4=
EXTT5=
EXTT6=
EXTT7=
EXTT8=
EXTT9=
EXTT10=
EXTT11=
EXTT12=
EXTT13=
EXTT14=
EXTT15=
EXTT16=
EXTT17=
EXTT18=
EXTT19=
EXTT20=
EXTT21=
EXTT22=
EXTT23=
EXTT24=
EXTT25=
EXTT26=
EXTT27=
EXTT28=
EXTT29=
EXTT30=
EXTT31=
EXTT32=
PLAYORDER=
